<svg viewBox="0 0 1296 260" version="1.1" xmlns="http://www.w3.org/2000/svg" xmlns:xlink="http://www.w3.org/1999/xlink">
    <g 
        id="advisory_illustration" 
        fill="none" 
        stroke="inherit" 
    >
        <g id="main-line" stroke-linecap="square" stroke-linejoin="round">
            <mask id="advisoryMask" maskUnits="userSpaceOnUse">
                <rect id="Rectangle" fill="white" x="-2" y="0" width="1300" height="260"></rect>
                <polygon id="Rectangle" transform="translate(1, 0)" fill="black" points="448.183594 2.84217094e-14 779 2.84217094e-14 851.664063 260 520.402344 260"></polygon>            
            </mask>
            <path d="M1296,130 L0,130" stroke-linecap="square" stroke-linejoin="round"  mask="url(#advisoryMask)" vector-effect="non-scaling-stroke" ></path>
        </g>
        <g id="illustration">
            <path  vector-effect="non-scaling-stroke" d="M769.033074,204.915707 L780,243.996034 L569.388672,244 C556.186222,244.000249 554.202449,244 541,244 C527.797551,244 514.030894,233.012109 510.244869,219.459448 C506.462735,205.906787 514.097042,194.922878 527.295601,194.918896 L479.018916,22 C465.820358,22 458.18605,32.9878909 461.968184,46.5405522 L461.909818,46.3215112 L510.244869,219.459448" id="Path"></path>
            <polyline  vector-effect="non-scaling-stroke" d="Path" points="494 72 681.165467 72 681.165467 72"></polyline>
            <path  vector-effect="non-scaling-stroke" d="M711.182607,178.46622 L670.129064,200.550347 L669.467466,201 C663.599209,189.9032 651.522108,181.705057 639.871719,181.705057 C628.229159,181.705057 620.724523,189.89517 621.029876,200.979926 L620.117732,200.554361 L541.011744,167.813983 L541,167.809968 C545.474595,129.220082 574.686694,102.004015 617.667079,102 C645.760428,102 674.452651,113.629764 698.212737,132.46407 L698.212737,132.46407" id="Path"></path>
            <path  vector-effect="non-scaling-stroke" d="M544.746749,145 L536.011788,142.098096 L536,142.094169 C542.345912,112.717789 572.059709,92 613.679458,92 C642.563556,92 671.417373,101.976536 694.107296,117.902697" id="Shape"></path>
            <polygon id="Path" points="669.941365 202 675 220 627.05478 220 622 202 646.5 202"></polygon>
            <path  vector-effect="non-scaling-stroke" d="M575,114 L630,184" id="Stroke-11"></path>
            <path  vector-effect="non-scaling-stroke" d="M599,145 C599,145 575.490341,153.066963 576.008439,182" id="Stroke-13"></path>
            <path  vector-effect="non-scaling-stroke" d="M667,114 L650,184" id="Stroke-15"></path>
            <path  vector-effect="non-scaling-stroke" d="M660,145 C660,145 689.047371,153.070023 705,182" id="Stroke-17"></path>
            <polygon  vector-effect="non-scaling-stroke" id="Path" points="541 186 550.90355 221 611 221 608.177704 211.018122 577.177051 199.472951"></polygon>
            <polyline  vector-effect="non-scaling-stroke" id="Path" points="746.435881 204.88342 751 221 690.829694 221 688 211.020956 716.749411 197.471097 716.749411 197.471097"></polyline>
            <path  vector-effect="non-scaling-stroke" d="M588,131 C598.206365,126.479586 609.975371,124 623,124" id="Stroke-23"></path>
            <path  vector-effect="non-scaling-stroke" d="M623,124 C635.719151,124 648.565033,126.477912 661,131" id="Stroke-25"></path>
            <path  vector-effect="non-scaling-stroke" d="M762.17827,35.1207199 L780.136265,35.1470907 C785.221246,35.1550409 790.570331,39.368668 792.02093,44.5124732 L834.632284,195.662432 C836.082883,200.806237 833.110731,205.007939 828.021808,204.999989 L727.863447,204.856884 C722.778466,204.848934 717.429381,200.635307 715.982723,195.491502 L673.367428,44.341543 C671.916829,39.1977379 674.892922,34.992061 679.977903,35.0000113 L698.030291,35.0265207 L698.030291,35.0265207" id="Path"></path>
            <path  vector-effect="non-scaling-stroke" d="M766.036159,48.1131414 L781.625409,48.1357436 L817,174.165687 C817.514023,175.5 817.833333,178 813.5,183 C809.166667,188 800.333333,192.333333 786,192 L728.392068,191.916158 L688,48 L701.580465,48.0196898 L701.580465,48.0196898" id="Path"></path>
            <path  vector-effect="non-scaling-stroke" d="M752.220954,28.4793969 L748.099679,28.4714874 C745.727666,28.2381567 742.41954,27.3799743 740.158591,24.5641871 C738.738556,22.7964105 737.893675,21.2501004 736.767167,17.4377142 C736.711634,17.2122931 736.707668,17.0066457 736.644203,16.7772698 C734.791811,10.2835581 728.024829,5.0118665 721.527575,5.00000223 C715.034287,4.99604747 711.266038,10.25192 713.122396,16.7416769 C713.185862,16.9710529 713.296926,17.1846098 713.376257,17.4060762 C714.419467,21.2145076 714.455166,22.7608177 714.042642,24.5285943 C713.38419,27.336472 710.56792,28.1906996 708.326804,28.4161208 L704.205529,28.4082113 C699.663798,28.4003017 697.033957,32.0782261 698.331028,36.6182876 L699.762962,41.6526938 L703.547078,54.9090406 C703.547078,54.9090406 767.674741,55 768,55 L764.219851,41.7436532 L762.78395,36.709247 C761.490846,32.1691855 756.762685,28.4833517 752.220954,28.4793969 Z" id="Stroke-35"></path>
            <path  vector-effect="non-scaling-stroke" d="M727.922972,18.0017526 C728.225396,19.1068307 727.61041,20 726.54939,20 C725.48668,19.9982487 724.380043,19.1015768 724.077618,17.9964987 C723.773504,16.8931719 724.39018,15.9982513 725.45289,16.0000026 C726.51391,16.0017539 727.620547,16.8984258 727.922972,18.0017526 Z" id="Stroke-39"></path>
            <path  vector-effect="non-scaling-stroke" d="M784,192.03125 C784,192.03125 797.708907,194.208273 796.867069,173.251009 C796.867069,173.251009 805.602664,174.577771 816.514023,173" id="Path"></path>
            <path  vector-effect="non-scaling-stroke" d="M723,76.4715 L775,76.5285" id="Stroke-45" stroke-linecap="round"></path>
            <path  vector-effect="non-scaling-stroke" d="M713.903247,77.00246 C714.282784,78.1070111 713.511849,79 712.18347,79 C710.858057,79 709.47334,78.099631 709.096768,76.99754 C708.717232,75.8929889 709.488166,75 710.81358,75 C712.141959,75.00246 713.526675,75.897909 713.903247,77.00246 Z" id="Stroke-47"></path>
            <path  vector-effect="non-scaling-stroke" d="M728,93.4715 L780,93.5285" id="Stroke-49" stroke-linecap="round"></path>
            <path  vector-effect="non-scaling-stroke" d="M718.903247,94.0012333 C719.282784,95.1064627 718.511849,96 717.18347,96 C715.858057,96 714.47334,95.1015396 714.096768,93.9963102 C713.717232,92.8910809 714.488166,91.9975435 715.81358,92.0000051 C717.141959,92.0024666 718.526675,92.8984655 718.903247,94.0012333 Z" id="Stroke-51"></path>
            <path  vector-effect="non-scaling-stroke" d="M731,110.4715 L783,110.5285" id="Stroke-53" stroke-linecap="round"></path>
            <path  vector-effect="non-scaling-stroke" d="M723.903247,111.00246 C724.282784,112.107011 723.511849,113 722.18347,113 C720.858057,113 719.47334,112.099631 719.096768,110.99754 C718.717232,109.892989 719.488166,109 720.81358,109 C722.141959,109.00246 723.526675,109.897909 723.903247,111.00246 Z" id="Stroke-55"></path>
            <path  vector-effect="non-scaling-stroke" d="M736,127.4715 L788,127.5285" id="Stroke-57" stroke-linecap="round"></path>
            <path  vector-effect="non-scaling-stroke" d="M726.904313,128.00246 C727.280821,129.107011 726.512982,130 725.184829,130 C723.85964,130 722.475159,129.099631 722.095687,127.99754 C721.719179,126.892989 722.487018,126 723.815171,126 C725.143324,126.00246 726.524841,126.897909 726.904313,128.00246 Z" id="Stroke-59"></path>
            <path  vector-effect="non-scaling-stroke" d="M741,142.47 L793,142.53" id="Stroke-61" stroke-linecap="round"></path>
            <path  vector-effect="non-scaling-stroke" d="M731.903247,143.001233 C732.282784,144.106463 731.511849,145 730.18347,145 C728.858057,145 727.47334,144.10154 727.096768,142.99631 C726.717232,141.891081 727.488166,140.997544 728.81358,141.000005 C730.141959,141.000005 731.526675,141.898465 731.903247,143.001233 Z" id="Stroke-63"></path>
            <path  vector-effect="non-scaling-stroke" d="M746,158.47 L798,158.53" id="Stroke-65" stroke-linecap="round"></path>
            <path  vector-effect="non-scaling-stroke" d="M736.903247,159.001233 C737.282784,160.106463 736.511849,161 735.18347,161 C733.858057,161 732.47334,160.10154 732.096768,158.99631 C731.717232,157.891081 732.488166,156.997544 733.81358,157.000005 C735.141959,157.000005 736.526675,157.898465 736.903247,159.001233 Z" id="Stroke-67"></path>
        </g>
    </g>
</svg>