<svg width="1440" height="2283" viewBox="0 0 1440 2283" xmlns="http://www.w3.org/2000/svg" xmlns:xlink="http://www.w3.org/1999/xlink"><title>BG Texture</title><defs><path id="a" d="M0 0H1440V2283H0z"/><linearGradient x1="60.428%" y1="97.16%" x2="70.704%" y2="21.263%" id="b"><stop stop-color="#142038" offset="0%"/><stop stop-color="#001828" offset="100%"/></linearGradient><linearGradient x1="50%" y1="93.107%" x2="68.69%" y2="16.888%" id="d"><stop stop-color="#0C1D32" offset="0%"/><stop stop-color="#001828" offset="100%"/></linearGradient></defs><g fill="none" fill-rule="evenodd"><path fill="#001828" d="M0 0H1440V2283H0z"/><mask id="c" fill="#fff"><use xlink:href="#a"/></mask><path d="M1440 14.214v60.002l-233.1.008 60.005-60.004L1440 14.214zm0 84.003v60.002l-317.105.011 60.004-60.004 257.101-.01zm0 423.426v60.002l-61.7.002 60.004-60.004H1440zm0 84.003v60.002l-145.706.005 60.004-60.004 85.702-.003zm0 84.003v60.002l-229.712.008 60.004-60.004L1440 689.65zm0 84.003v60.002l-313.718.011 60.004-60.004 253.714-.009zm0 84.003v1.704l-58.3 58.3-339.424.012 60.004-60.004 337.72-.012zm0 341.115v58.31l-58.313.003L1440 1198.77zm0 82.311v60.003l-142.319.005 60.004-60.005 82.315-.003zm0 84.003v60.003l-226.325.008 60.004-60.005 166.321-.006zm0 84.003v60.003l-310.331.01 60.004-60.004 250.327-.009zm0 84.003v5.091l-54.914 54.914-339.423.012 60.004-60.005 334.333-.012zm0 344.502v54.924l-54.926.002 54.926-54.926zm0 78.925v60.002l-138.932.005 60.005-60.004 78.927-.003zm0 84.003v60.002l-222.938.008 60.005-60.004 162.933-.006zm0 84.003v60.002l-306.944.011 60.005-60.004 246.939-.01zM0 826.883v-60.002l174.839-.006-60.004 60.004L0 826.883zm0-84.003v-60.002l258.845-.01-60.004 60.005L0 742.88zm0-84.003v-56.575l3.428-3.427 339.423-.012-60.004 60.004L0 658.877zM0 262.89v-3.44h3.44L0 262.891zm0-27.44v-60.003l87.446-.003L27.44 235.45H0zm0-84.003V91.445l171.452-.006-60.005 60.005L0 151.448zm0-84.003V7.442l255.458-.009-60.005 60.005L0 67.445zM930.893 10.82l-60.004 60.004-339.424.012 60.005-60.004 339.423-.012zm-84.006 84.006l-60.004 60.004-339.424.012 60.005-60.004 339.423-.012zm-84.006 84.006l-60.004 60.004-339.424.012 60.005-60.004 339.423-.012zm-84.006 84.006l-60.004 60.004-339.424.012 60.005-60.004 339.423-.012zm-84.006 84.006l-60.004 60.004-339.424.012 60.005-60.004 339.423-.012zm-84.006 84.006l-60.004 60.004-339.424.012 60.005-60.004 339.423-.012zm-84.006 84.006l-60.004 60.004-339.424.012 60.005-60.004 339.423-.012zm1011.46-332.637l-60.005 60.004-339.423.012 60.004-60.004 339.423-.012zm-84.007 84.006l-60.004 60.004-339.423.012 60.004-60.004 339.423-.012zm-84.006 84.006l-60.004 60.004-339.423.012 60.004-60.004 339.423-.012zm-84.006 84.006l-60.004 60.004-339.423.012 60.004-60.004 339.423-.012zm-84.006 84.006l-60.004 60.004-339.423.012 60.004-60.004 339.423-.012zm-84.006 84.006l-60.004 60.004-339.423.012 60.004-60.004 339.423-.012zm-84.006 84.006l-60.004 60.004-339.423.012 60.004-60.004 339.423-.012zm-84.006 84.006l-60.004 60.004-339.423.012 60.004-60.004 339.423-.012zm-84.006 84.006l-60.004 60.004-339.423.012 60.004-60.004 339.423-.012zm-84.006 84.006l-60.004 60.004-339.423.012 60.004-60.004 339.423-.012zm-84.006 84.006l-60.004 60.004-339.423.012 60.004-60.004 339.423-.012zm-84.006 84.006l-60.004 60.004-339.423.012 60.004-60.004 339.423-.012zm843.447-164.625l-60.004 60.004-339.423.012 60.004-60.004 339.423-.012zm-84.006 84.006l-60.004 60.004-339.423.012 60.004-60.004 339.423-.012zm-84.006 84.006l-60.004 60.004-339.423.012 60.004-60.004 339.423-.012zm-84.006 84.006l-60.004 60.004-339.423.012 60.004-60.004 339.423-.012zm-84.006 84.006l-60.004 60.004-339.423.012 60.004-60.004 339.423-.012zm-84.006 84.006l-60.004 60.004-339.423.012 60.004-60.004 339.423-.012zm-84.006 84.006l-60.004 60.004-339.423.012 60.004-60.004 339.423-.012zm507.424 171.4l-60.005 60.004-339.423.012 60.004-60.005 339.424-.012zm-84.006 84.005l-60.005 60.005-339.423.012 60.004-60.005 339.424-.012zm-84.006 84.006l-60.005 60.005-339.423.012 60.004-60.005 339.424-.012z" fill="url(#b)" fill-rule="nonzero" mask="url(#c)"/><path d="M279.459 0h60.002l-.01 262.85-60.004 60.005L279.46 0zm84.003 0h60.002l-.006 178.845-60.005 60.004L363.462 0zm84.003 0h60.002l-.003 94.839-60.005 60.004L447.465 0zm84.003 0h60.002v10.833l-60.005 60.004L531.468 0zm423.426 0h60.002l-.01 266.238-60.003 60.004L954.894 0zm84.003 0h60.002l-.006 182.232-60.004 60.004L1038.897 0zm84.003 0h60.002l-.003 98.226-60.004 60.004L1122.9 0zm84.003 0h60.002v14.22L1206.9 74.224 1206.903 0zM1440 859.359v339.41l-58.313 58.314.012-339.424 58.301-58.3zm0 678.822v339.411l-54.926 54.926.012-339.423L1440 1538.18zM0 602.302V262.891l3.44-3.44-.012 339.424L0 602.302zM255.458 7.433l-.012 339.424-60.005 60.004.012-339.423 60.005-60.005zM171.452 91.44l-.012 339.424-60.005 60.004.012-339.423 60.005-60.005zm-84.006 84.006l-.012 339.424-60.005 60.004.012-339.423 60.005-60.005zM930.893 10.821l-.012 339.423-60.004 60.004.012-339.423 60.004-60.004zm-84.006 84.006l-.012 339.423-60.004 60.004.012-339.423 60.004-60.004zm-84.006 84.006l-.012 339.423-60.004 60.004.012-339.423 60.004-60.004zm-84.006 84.006l-.012 339.423-60.004 60.004.012-339.423 60.004-60.004zm-84.006 84.006l-.012 339.423-60.004 60.004.012-339.423 60.004-60.004zm-84.006 84.006l-.012 339.423-60.004 60.004.012-339.423 60.004-60.004zm-84.006 84.006l-.012 339.423-60.004 60.004.012-339.423 60.004-60.004zm-84.006 84.006l-.012 339.423-60.004 60.004.012-339.423 60.004-60.004zm-84.006 84.006l-.012 339.423-60.004 60.004.012-339.423 60.004-60.004zm-84.006 84.006l-.012 339.423-60.004 60.004.012-339.423 60.004-60.004zM1438.316 182.22l-.012 339.423-60.004 60.004.012-339.423 60.004-60.004zm-84.006 84.006l-.012 339.423-60.004 60.004.012-339.423 60.004-60.004zm-84.006 84.006l-.012 339.423-60.004 60.004.012-339.423 60.004-60.004zm-84.006 84.006l-.012 339.423-60.004 60.004.012-339.423 60.004-60.004zm-84.006 84.006l-.012 339.423-60.004 60.004.012-339.423 60.004-60.004zm-84.006 84.006l-.012 339.423-60.004 60.004.012-339.423 60.004-60.004zm-84.006 84.006l-.012 339.423-60.004 60.004.012-339.423 60.004-60.004zm-84.006 84.006l-.012 339.423-60.004 60.004.012-339.423 60.004-60.004zm-84.006 84.006l-.012 339.423-60.004 60.004.012-339.423 60.004-60.004zm-84.006 84.006l-.012 339.423-60.004 60.004.012-339.423 60.004-60.004zm-84.006 84.006l-.012 339.423-60.004 60.004.012-339.423 60.004-60.004zm-84.006 84.006l-.012 339.423-60.004 60.004.012-339.423 60.004-60.004zm843.447-164.625l-.012 339.423-60.004 60.005.012-339.424 60.004-60.004zm-84.006 84.006l-.012 339.423-60.004 60.005.012-339.424 60.004-60.004zm-84.006 84.006l-.012 339.423-60.004 60.005.012-339.424 60.004-60.004zm-84.006 84.006l-.012 339.423-60.004 60.005.012-339.424 60.004-60.004zm-84.006 84.006l-.012 339.423-60.004 60.005.012-339.424 60.004-60.004zm-84.006 84.006l-.012 339.423-60.004 60.005.012-339.424 60.004-60.004zm-84.006 84.006l-.012 339.423-60.004 60.005.012-339.424 60.004-60.004zm507.424 171.4l-.012 339.423-60.005 60.004.012-339.423 60.005-60.005zm-84.006 84.005l-.012 339.424-60.005 60.004.012-339.423 60.005-60.005zm-84.006 84.006l-.012 339.424-60.005 60.004.012-339.423 60.005-60.005z" fill="url(#d)" fill-rule="nonzero" mask="url(#c)"/></g></svg>