<svg viewBox="0 0 1296 400" version="1.1" xmlns="http://www.w3.org/2000/svg" xmlns:xlink="http://www.w3.org/1999/xlink">
    <g 
        id="advisory_illustration" 
        fill="none" 
        stroke="inherit" 
        stroke-width="4px"
    >
        <g id="main-line" stroke-linecap="square" stroke-linejoin="round">
            <mask id="eventMask" maskUnits="userSpaceOnUse">
                <rect id="Rectangle" fill="white" x="-2" y="0" width="1300" height="260"></rect>
                <rect id="Rectangle" fill="black" x="464" y="0" width="289" height="400"></rect>
            </mask>
            <path d="M1296,200 L0,200" stroke-linecap="square" stroke-linejoin="round"  mask="url(#eventMask)"></path>
        </g>
          <g id="illustration" transform="translate(464.000000, 4.000000)" >
            <path d="M314.162815,82.4761479 L346.916126,102.125321 C351.027958,104.592351 351.027958,108.626394 346.916126,111.093424 L288.475667,146.151331 C284.363835,148.616223 277.636165,148.616223 273.526482,146.151331 L237.532961,124.559935 L226.398595,95.2903828 L247.904759,82.299051 L247.904759,82.299051" id="Path"></path>
            <path d="M281,9 C276.753173,9 273.619843,15.3892924 273.619843,15.3892924 L239,105.468925 C239,105.468925 254.968761,123 281.110055,123 C307.253507,123 323,105.468925 323,105.468925 L287.896779,14.1366155 C287.896779,14.1366155 285.246827,9 281,9 Z" id="Stroke-15"></path>
            <path d="M278.518914,16.9579844 C278.518914,16.9579844 280.475514,18.0829844 283.018914,16.9579844" id="Stroke-17" stroke-linecap="round"></path>
            <path d="M262,41 C267.318084,42.787555 273.436026,44 280.248749,44 C286.866333,44 292.812723,42.8554368 298,41.1527341" id="Stroke-19"></path>
            <path d="M248,81 C255.218029,86.2603235 266.319392,92 280.38469,92 C294.034223,92 304.831263,86.5952426 312,81.4688868" id="Stroke-21"></path>
            <path d="M131,191.295462 L154.501205,177 M257.669295,177.32266 L310.130376,209.013924 C316.623208,212.938781 316.623208,219.359211 310.130376,223.281547 L217.808839,279.056357 C211.31349,282.981214 200.685881,282.981214 194.190532,279.056357 L124.839318,237.157615 L124.839318,237.157615" id="Shape" fill-rule="nonzero"></path>
            <path d="M206,62 C199.327113,62 194.406017,72.1454021 194.406017,72.1454021 L140,215.165436 C140,215.165436 165.090556,243 206.17342,243 C247.256283,243 272,215.165436 272,215.165436 L216.837471,70.1565015 C216.837471,70.1565015 212.672887,62 206,62 Z" id="Stroke-27"></path>
            <path d="M200.476476,73.3179944 C200.476476,73.3179944 205.432873,79.352507 211.875,73.3179944" id="Stroke-29" stroke-linecap="round"></path>
            <path d="M178,115 C186.420026,117.977633 196.105823,120 206.891307,120 C217.369785,120 226.783806,118.091799 235,115.251631" id="Stroke-31"></path>
            <path d="M156,175 C167.392956,183.607813 184.909784,193 207.106622,193 C228.649211,193 245.684751,184.156113 257,175.769144" id="Stroke-33"></path>
            <path d="M105,132.395096 C105,121.300545 96.3938946,109.39236 85.8755997,105.929393 L19.1244003,83.9562558 C8.60610545,80.4932893 0,86.7361716 0,97.8307227 L0,199.213524 C0,210.308075 1.54378595,219.893386 3.42840776,220.513656 C5.31553572,221.136438 6.85932167,230.719237 6.85932167,241.813788 L6.85932167,289.12007 C6.85932167,300.214621 15.4654271,312.125317 25.983722,315.588284 L79.0137719,333.043744 C89.5345729,336.506711 98.1406783,330.263828 98.1406783,319.169277 L98.1406783,271.862995 C98.1406783,260.768444 99.6819581,252.197665 101.569086,252.820446 C103.456214,253.440717 105,244.872449 105,233.777898 L105,132.395096 Z" id="Stroke-37"></path>
            <path d="M96,329 C109.544145,316.453852 117.210812,309.120519 119,307 C121.683782,303.819221 123,301.6689 123.000146,297 L123,248.4295 C123,237.702689 124.350384,229.43238 126.001096,230.052151 C127.649616,230.671923 129,222.404123 129,211.677312 C129,208.545432 129,206.979492 129,206.979492" id="Stroke-39"></path>
            <path d="M36,60 L33,60 C31.3637681,60.4006532 29.6971014,61.4006532 28,63 L5,86" id="Stroke-41"></path>
            <path d="M129,132.533455 L129,109.03274 C129,98.1136223 120.694438,86.3899381 110.541807,82.9826625 L54,64" id="Stroke-43"></path>
            <polygon id="Stroke-47" points="88 201 15 176.853546 15 99 88 123.146454"></polygon>
            <path d="M66,220.680502 C66,228.548098 59.7318238,232.832183 52,230.246612 C44.2681762,227.663561 38,219.188633 38,211.321037 C38,203.450921 44.2681762,199.169356 52,201.752407 C59.7318238,204.340498 66,212.812906 66,220.680502 Z" id="Stroke-49"></path>
            <path d="M18,235 L33,240" id="Stroke-51"></path>
            <path d="M18,251 L33,256" id="Stroke-53"></path>
            <path d="M18,268 L33,273" id="Stroke-55"></path>
            <path d="M44,244 L59,249" id="Stroke-57"></path>
            <path d="M44,260 L59,265" id="Stroke-59"></path>
            <path d="M44,277 L59,282" id="Stroke-61"></path>
            <path d="M17,285 L87,308" id="Stroke-63"></path>
            <path d="M17,298 L87,321" id="Stroke-65"></path>
            <path d="M70,253 L85,258" id="Stroke-67"></path>
            <path d="M70,269 L85,274" id="Stroke-69"></path>
            <path d="M70,285 L85,290" id="Stroke-71"></path>
            <polygon id="Stroke-73" points="31 203 15 197.312418 15 189 31 194.687582"></polygon>
            <polygon id="Stroke-75" points="31 223 15 217.309796 15 209 31 214.687582"></polygon>
            <polygon id="Stroke-77" points="88 221 72 215.311353 72 207 88 212.688647"></polygon>
            <polygon id="Stroke-79" stroke-linecap="round" stroke-linejoin="round" points="92.0820039 94 67 86.2304628 77.9179961 78 102 86.2304628"></polygon>
            <polygon id="Stroke-81" stroke-linecap="round" stroke-linejoin="round" points="92.0148258 98.7505571 92 94.874379 101.985174 87 102 90.8786621"></polygon>
            <polygon id="Stroke-83" stroke-linejoin="round" points="92 98.7314521 67.2322294 90.3028295 67 87 91.7677706 95.4286227"></polygon>
            <polygon id="Stroke-85" points="88 242 72 236.312418 72 228 88 233.690204"></polygon>
            <path d="M17,131 C17.190059,131.124131 19.9649205,139.515392 28.413677,142.238828 C32.7774319,143.648957 40.1061072,138.398213 45.3441335,140.076465 C50.1665641,141.625621 52.8755385,150.096326 57.7030373,151.640516 C62.948666,153.318769 70.2773413,148.060576 74.6512327,149.460775 C83.2545705,152.206554 79.6839952,158.668818 87,161" id="Stroke-87" stroke-linecap="round"></path>
            <path d="M17,146 C17.190059,146.124131 19.9649205,154.515392 28.413677,157.238828 C32.7774319,158.648957 40.1061072,153.398213 45.3441335,155.078947 C50.1665641,156.625621 52.8755385,165.096326 57.7030373,166.640516 C62.948666,168.318769 70.2773413,163.060576 74.6512327,164.460775 C83.2545705,167.206554 79.6839952,173.668818 87,176" id="Stroke-89" stroke-linecap="round"></path>
            <path d="M17,115 C17.190059,115.124131 19.9649205,123.515392 28.413677,126.238828 C32.7774319,127.648957 40.1061072,122.398213 45.3441335,124.078947 C50.1665641,125.625621 52.8755385,134.096326 57.7030373,135.640516 C62.948666,137.318769 70.2773413,132.060576 74.6512327,133.460775 C83.2545705,136.206554 79.6839952,142.668818 87,145" id="Stroke-91" stroke-linecap="round"></path>
            <path d="M17,160 C17.190059,160.124131 19.9649205,168.515392 28.413677,171.238828 C32.7774319,172.648957 40.1061072,167.39573 45.3441335,169.076465 C50.1665641,170.625621 52.8755385,179.093843 57.7030373,180.638034 C62.948666,182.318769 70.2773413,177.060576 74.6512327,178.458292 C83.2545705,181.204071 79.6839952,187.668818 87,190" id="Stroke-93" stroke-linecap="round"></path>
            <path d="M54,75.0703125 C54,71.0176358 54,49.0753381 54,9.24341949 C54,4.14049051 49.9047554,0 44.8520521,0 L44.2815456,0 C39.2263617,0 35.1335976,4.14049051 35.1335976,9.24341949 L35.1335976,70.3156545 C35.1335976,70.3156545 32.5853473,79.5798987 49.7472374,78.9712732 C51.0483098,78.9251323 54,78 54,75.0703125 Z" id="Stroke-99"></path>
            <path d="M35,25 C35,25 40.2248609,32.4721334 53,26.9911716" id="Stroke-101"></path>
            <polygon id="Path" stroke-linecap="round" stroke-linejoin="round" points="119 215 119 141.944526 116 141 116 214.071829"></polygon>
            <path d="M128,130 C128,130 124,133.666667 116,141 L119,142.061501 L131,131 L131,205.73178 L119.898612,215" id="Stroke-105" stroke-linecap="round" stroke-linejoin="round"></path>
        </g>
    </g>
</svg>