<?xml version="1.0" encoding="UTF-8"?>
<svg width="162px" height="64px" viewBox="0 0 162 64" version="1.1" xmlns="http://www.w3.org/2000/svg" xmlns:xlink="http://www.w3.org/1999/xlink">
    <!-- Generator: Sketch 53.2 (72643) - https://sketchapp.com -->
    <title>icrowd logo knockout - no tag</title>
    <desc>Created with Sketch.</desc>
    <defs>
        <path d="M0.922764228,37 L0.922764228,19 L3.92276423,16 L3.92276423,34 L18.9227642,34 L18.9227642,51 L35.9227642,51 L32.9227642,54 L15.9227642,54 L15.9227642,37 L0.922764228,37 Z M18.9227642,1.59872116e-14 L18.9227642,16 L15.9227642,16 L15.9227642,3 L18.9227642,1.59872116e-14 Z" id="path-1"></path>
        <path d="M0.756097561,37.2195122 L0.756097561,19.2195122 L3.75609756,16.2195122 L3.75609756,34.2195122 L18.7560976,34.2195122 L18.7560976,51.2195122 L35.7560976,51.2195122 L32.7560976,54.2195122 L15.7560976,54.2195122 L15.7560976,37.2195122 L0.756097561,37.2195122 Z M18.7560976,0.219512195 L18.7560976,6.2195122 L15.7560976,6.2195122 L15.7560976,3.2195122 L18.7560976,0.219512195 Z" id="path-3"></path>
        <path d="M0.339430894,37.6097561 L0.339430894,19.6097561 L3.33943089,16.6097561 L3.33943089,34.6097561 L18.3394309,34.6097561 L18.3394309,51.6097561 L35.3333333,51.6097561 L32.3394309,54.6097561 L15.3394309,54.6097561 L15.3394309,37.6097561 L0.339430894,37.6097561 Z M18.3394309,0.609756098 L18.3394309,11.6097561 L15.3394309,11.6097561 L15.3394309,3.6097561 L18.3394309,0.609756098 Z" id="path-5"></path>
    </defs>
    <g id="icrowd-logo-knockout---no-tag" stroke="none" stroke-width="1" fill="none" fill-rule="evenodd">
        <g id="Logomark" transform="translate(-0.756098, 0.000000)">
            <g id="Yellow" transform="translate(9.833333, 0.000000)">
                <mask id="mask-2" fill="white">
                    <use xlink:href="#path-1"></use>
                </mask>
                <use id="Mask" fill="#FCB833" xlink:href="#path-1"></use>
                <polygon id="Fill-22" fill="#E99619" mask="url(#mask-2)" points="18.9227642 51 15.9227642 54 32.9227642 54 35.9227642 51"></polygon>
                <polygon id="Fill-25" fill="#E99619" mask="url(#mask-2)" points="18.9227642 34 3.92276423 34 0.922764228 37 15.9227642 37"></polygon>
            </g>
            <g id="Orange" transform="translate(0.000000, 9.780488)">
                <mask id="mask-4" fill="white">
                    <use xlink:href="#path-3"></use>
                </mask>
                <use id="Mask" fill="#F26F21" xlink:href="#path-3"></use>
                <polygon id="Fill-20" fill="#C45A1D" mask="url(#mask-4)" points="15.7560976 54.2195122 32.7560976 54.2195122 35.7560976 51.2195122 18.7560976 51.2195122"></polygon>
                <polygon id="Fill-23" fill="#C45A1D" mask="url(#mask-4)" points="18.7560976 34.2195122 3.75609756 34.2195122 0.756097561 37.2195122 15.7560976 37.2195122"></polygon>
            </g>
            <g id="Teal" transform="translate(5.416667, 4.390244)">
                <mask id="mask-6" fill="white">
                    <use xlink:href="#path-5"></use>
                </mask>
                <use id="Mask" fill="#29AFBE" xlink:href="#path-5"></use>
                <polygon id="Fill-21" fill="#0093A5" mask="url(#mask-6)" points="15.3394309 54.6097561 32.3394309 54.6097561 35.3394309 51.6097561 18.3394309 51.6097561"></polygon>
                <polygon id="Fill-24" fill="#0093A5" mask="url(#mask-6)" points="18.3394309 34.6097561 3.33943089 34.6097561 0.339430894 37.6097561 15.3394309 37.6097561"></polygon>
            </g>
        </g>
        <g id="Wordmark" transform="translate(35.640000, 9.850000)" fill="#FEFEFE">
            <path d="M3.29232475,-3.28626015e-14 C1.29228761,-3.28626015e-14 -1.0658141e-14,1.30195654 -1.0658141e-14,3.31602478 C-1.0658141e-14,5.27155313 1.32237413,6.58536585 3.29232475,6.58536585 C5.26227538,6.58536585 6.58536585,5.27155313 6.58536585,3.31602478 C6.58536585,1.33307901 5.26227538,-3.28626015e-14 3.29232475,-3.28626015e-14" id="Fill-2"></path>
            <polygon id="Fill-4" points="0.365853659 32.195122 6.2195122 32.195122 6.2195122 9.51219512 0.365853659 9.51219512"></polygon>
            <path d="M21.2990036,27.721285 C17.3320425,27.721285 14.6665473,24.961239 14.6665473,20.8521818 C14.6665473,16.8095783 17.3938785,13.9852937 21.2990036,13.9852937 C24.2853186,13.9852937 26.5521535,15.3224909 27.3880307,15.8976851 L27.6717488,16.0933545 L27.6717488,10.682542 L27.6681114,10.5688322 L27.5706287,10.5164076 C26.4204792,9.91020166 24.2802262,8.7804878 20.7199277,8.7804878 C13.8015708,8.7804878 8.7804878,13.8575548 8.7804878,20.8521818 C8.7804878,27.8497623 13.8015708,32.9268293 20.7199277,32.9268293 C24.3216927,32.9268293 26.6081696,31.7218012 27.7073954,31.1429151 L27.804878,31.0912289 L27.804878,25.6242998 L27.5255248,25.8059401 C26.6387239,26.3818727 24.2562193,27.721285 21.2990036,27.721285" id="Fill-6"></path>
            <path d="M43.03643,8.7804878 C40.3321444,8.7804878 37.9017105,10.3370113 36.2831577,13.076522 C36.2839018,13.0493691 36.2839018,13.0222162 36.284646,12.9943294 C36.2905993,12.7594932 36.2972967,12.4894316 36.2972967,12.1988218 C36.2972967,11.3468069 36.2511587,10.4382844 36.2057648,9.53856832 L36.1968348,9.36464278 L30.7317073,9.36464278 L30.7317073,32.195122 L36.6619362,32.195122 L36.6619362,22.351817 C36.6619362,17.3769595 39.9258318,14.4033464 43.0818239,14.4033464 C43.5699943,14.4033464 43.9569587,14.4884745 44.1883932,14.5398449 C44.3074591,14.566264 44.3870845,14.5831429 44.4488499,14.5831429 L44.6341463,14.5831429 L44.6341463,8.96688902 L44.5076388,8.92432496 C44.3290398,8.86561592 43.7024552,8.7804878 43.03643,8.7804878" id="Fill-7"></path>
            <path d="M56.7076876,27.8571461 C52.9761622,27.8571461 50.2681198,24.9117679 50.2681198,20.8529202 C50.2681198,16.7955492 52.9761622,13.850171 56.7076876,13.850171 C60.4992435,13.850171 63.1465144,16.7305722 63.1465144,20.8529202 C63.1465144,24.9117679 60.439213,27.8571461 56.7076876,27.8571461 M56.7076876,8.7804878 C49.7122818,8.7804878 44.6341463,13.8575548 44.6341463,20.8529202 C44.6341463,27.8497623 49.7122818,32.9268293 56.7076876,32.9268293 C63.7023523,32.9268293 68.7804878,27.8497623 68.7804878,20.8529202 C68.7804878,13.8575548 63.7023523,8.7804878 56.7076876,8.7804878" id="Fill-8"></path>
            <path d="M97.1095532,9.51219512 L94.2584762,17.5096006 C93.8630395,18.5715826 93.4668745,19.7467146 93.0830897,20.8833904 C92.6563385,22.1457883 92.2499781,23.3490229 91.8596391,24.3666325 L91.5071687,23.2632361 C90.915106,21.4062465 90.3026524,19.4856564 89.6508737,17.6035224 L86.9330654,9.73849492 L83.553283,9.73849492 L83.5110448,9.86421704 C82.0960658,14.0906986 79.9987219,20.309506 78.601949,24.3481439 C77.7382511,21.80412 76.7747837,19.0692943 75.7588827,16.183602 C74.9913131,14.0063909 74.213548,11.7981189 73.4663692,9.63569861 L73.424131,9.51219512 L67.3170732,9.51219512 L76.7383715,32.8122003 L76.7849791,32.9268293 L80.377409,32.9268293 L85.2442666,19.381381 L90.1103959,32.9268293 L93.7028257,32.9268293 L103.170732,9.51219512 L97.1095532,9.51219512 Z" id="Fill-9"></path>
            <path d="M119.90551,21.0601088 C119.90551,25.7906874 116.804475,27.943721 113.923067,27.943721 C110.427289,27.943721 107.985133,25.1136464 107.985133,21.0601088 C107.985133,17.0087482 110.427289,14.1786737 113.923067,14.1786737 C116.804475,14.1786737 119.90551,16.3317073 119.90551,21.0601088 L119.90551,21.0601088 Z M120.039037,2.84217094e-14 L120.039037,11.1976618 C120.039037,11.7324733 120.065304,12.1540818 120.09522,12.4588591 C118.859184,10.8624068 116.373249,9.19556541 112.895713,9.19556541 C106.738882,9.19556541 102.439024,14.0749043 102.439024,21.0601088 C102.439024,27.9371901 106.893569,32.9268293 113.029969,32.9268293 C116.383464,32.9268293 119.14375,31.0517234 120.400946,29.0184237 C120.387082,29.2564402 120.381974,29.5416247 120.397297,29.8645434 L120.492882,32.3492038 L125.853659,32.3492038 L125.853659,2.84217094e-14 L120.039037,2.84217094e-14 Z" id="Fill-10"></path>
        </g>
    </g>
</svg>